Coordinates
version=1
nRows=17
nColumns=33
inDegrees=yes

Units are S.I. units (second, meters, Newtons, ...)
Angles are in degrees.

endheader
time	ground_thorax_rot_x	ground_thorax_rot_y	ground_thorax_rot_z	ground_thorax_tx	ground_thorax_ty	ground_thorax_tz	clav_prot_r	clav_elev_r	scapula_abduction_r	scapula_elevation_r	scapula_upward_rot_r	scapula_winging_r	shoulder_elv_r	plane_of_elev_r	axial_rot_r	elbow_flexion_r	pro_sup_r	wrist_flex_r	wrist_dev_r	clav_prot_l	clav_elev_l	scapula_abduction_l	scapula_elevation_l	scapula_upward_rot_l	scapula_winging_l	shoulder_elv_l	plane_of_elev_l	axial_rot_l	elbow_flexion_l	pro_sup_l	wrist_flex_l	wrist_dev_l	
4.9700	-90.000000	90.000000	-90.000000	-87.714942	870.175422	-38.987620	30.411724	33.314567	45.000000	45.000000	15.539039	1785.049186	110.595503	32.688581	-26.206147	2517.949301	159.613242	15.918699	14.683545	-45.000000	19.766608	35.268360	-16.424764	45.000000	4424.816836	-4206.689406	24.845005	-177.337324	1790.992015	47.485486	12.257209	-23.228942	
4.9800	-90.000000	90.000000	-90.000000	-87.360559	869.526155	-39.046321	30.445995	33.391263	45.000000	45.000000	15.589195	1784.941546	110.560353	32.651720	-26.439690	2517.997134	160.648478	16.151047	14.628377	-45.000000	19.994001	35.271820	-16.549685	45.000000	4424.888256	-4206.694855	24.885695	-177.386704	1790.987308	47.452979	12.219292	-23.322473	
4.9900	-90.000000	90.000000	-90.000000	-86.991722	868.851522	-39.105298	30.509234	33.506830	45.000000	45.000000	15.661075	1784.768768	110.495215	32.662881	-26.704437	2518.078511	161.647375	16.444711	14.609276	-45.000000	20.276830	35.275177	-16.685904	45.000000	4424.985496	-4206.713241	24.938937	-177.471237	1790.975116	47.425442	12.148836	-23.417176	
5.0000	-90.000000	90.000000	-90.000000	-86.592085	868.115285	-39.163667	30.521165	33.569987	45.000000	45.000000	15.719780	1784.619312	110.450493	32.649138	-26.947669	2518.135556	162.617853	16.681457	14.563074	-45.000000	20.451328	35.281045	-16.777927	45.000000	4425.037925	-4206.706075	24.961997	-177.465155	1790.966664	47.451623	12.083606	-23.498343	
5.0100	-90.000000	90.000000	-90.000000	-86.158463	867.323216	-39.223235	30.508002	33.615390	45.000000	45.000000	15.777475	1784.492026	110.411665	32.598363	-27.183518	2518.177410	163.542655	16.848473	14.492134	-45.000000	20.566503	35.289821	-16.842929	45.000000	4425.068934	-4206.693914	24.964723	-177.414021	1790.956502	47.512836	12.029687	-23.574052	
5.0200	-90.000000	90.000000	-90.000000	-85.685214	866.477616	-39.285592	30.478959	33.648291	45.000000	45.000000	15.832971	1784.347733	110.374895	32.552491	-27.420506	2518.221654	164.404072	17.003554	14.433645	-45.000000	20.620518	35.298386	-16.875594	45.000000	4425.076617	-4206.665191	24.952928	-177.319620	1790.950536	47.594468	11.966537	-23.639789	
5.0300	-90.000000	90.000000	-90.000000	-85.170485	865.593493	-39.352335	30.438230	33.675433	45.000000	45.000000	15.889583	1784.206084	110.339763	32.487826	-27.658653	2518.256608	165.189844	17.099196	14.364974	-45.000000	20.629736	35.306598	-16.880528	45.000000	4425.067565	-4206.630404	24.928105	-177.196412	1790.947688	47.679185	11.916338	-23.698241	
5.0400	-90.000000	90.000000	-90.000000	-84.614288	864.691356	-39.423949	30.401947	33.708613	45.000000	45.000000	15.948819	1784.014779	110.298122	32.461195	-27.907150	2518.309865	165.872539	17.218101	14.332929	-45.000000	20.613374	35.313112	-16.857290	45.000000	4425.051471	-4206.576843	24.906587	-177.056171	1790.953146	47.739868	11.851999	-23.745327	
5.0500	-90.000000	90.000000	-90.000000	-84.017155	863.791541	-39.498892	30.359997	33.741043	45.000000	45.000000	16.010130	1783.824007	110.257903	32.423916	-28.152118	2518.355213	166.443402	17.272376	14.292489	-45.000000	20.568498	35.326669	-16.808089	45.000000	4425.020031	-4206.517395	24.877323	-176.892223	1790.959567	47.770777	11.810049	-23.782870	
5.0600	-90.000000	90.000000	-90.000000	-83.379696	862.912849	-39.573420	30.319308	33.776841	45.000000	45.000000	16.070382	1783.609314	110.220132	32.409171	-28.390745	2518.414728	166.881938	17.339529	14.286242	-45.000000	20.493642	35.339463	-16.733798	45.000000	4424.986640	-4206.433850	24.850715	-176.700425	1790.970231	47.759392	11.764768	-23.806848	
5.0700	-90.000000	90.000000	-90.000000	-82.702297	862.072226	-39.642127	30.276789	33.813998	45.000000	45.000000	16.134282	1783.394226	110.183282	32.394391	-28.620006	2518.464184	167.181939	17.348489	14.275484	-45.000000	20.404145	35.362187	-16.640354	45.000000	4424.947457	-4206.345488	24.815934	-176.481784	1790.975093	47.708875	11.743532	-23.817962	
5.0800	-90.000000	90.000000	-90.000000	-81.983749	861.283275	-39.699103	30.233036	33.855158	45.000000	45.000000	16.192273	1783.193201	110.156591	32.371461	-28.828380	2518.519562	167.334143	17.355785	14.293672	-45.000000	20.290612	35.383378	-16.530132	45.000000	4424.922253	-4206.234386	24.785355	-176.227774	1790.978243	47.615296	11.727315	-23.813453	
5.0900	-90.000000	90.000000	-90.000000	-81.220456	860.555914	-39.739504	30.188518	33.898982	45.000000	45.000000	16.247166	1783.018136	110.135796	32.331128	-29.021800	2518.557786	167.347112	17.293935	14.308498	-45.000000	20.166751	35.424223	-16.412819	45.000000	4424.889404	-4206.130894	24.742480	-175.938858	1790.975788	47.484019	11.737805	-23.798078	
5.1000	-90.000000	90.000000	-90.000000	-80.405593	859.895593	-39.760827	30.144584	33.944418	45.000000	45.000000	16.291752	1782.870960	110.125235	32.274643	-29.202668	2518.593462	167.226159	17.220830	14.343864	-45.000000	20.027787	35.466366	-16.297879	45.000000	4424.875901	-4206.018601	24.701582	-175.609301	1790.973186	47.316602	11.754118	-23.771979	
5.1100	-90.000000	90.000000	-90.000000	-79.529430	859.303854	-39.763840	30.105592	33.989233	45.000000	45.000000	16.329376	1782.716465	110.112977	32.234991	-29.392774	2518.615613	166.983542	17.106256	14.382543	-45.000000	19.902186	35.528567	-16.189613	45.000000	4424.856675	-4205.919915	24.646905	-175.243776	1790.967818	47.121032	11.783703	-23.734642	
5.1200	-90.000000	90.000000	-90.000000	-78.579880	858.778335	-39.752523	30.068712	34.034677	45.000000	45.000000	16.350341	1782.579649	110.106427	32.183595	-29.592265	2518.638855	166.630038	16.982099	14.435754	-45.000000	19.787624	35.593206	-16.096617	45.000000	4424.864869	-4205.822606	24.596011	-174.836265	1790.962524	46.901358	11.814722	-23.685602	
5.1300	-90.000000	90.000000	-90.000000	-77.544048	858.313659	-39.733463	30.037851	34.078385	45.000000	45.000000	16.354395	1782.434260	110.098918	32.144067	-29.822069	2518.651324	166.185962	16.823736	14.493554	-45.000000	19.700014	35.677774	-16.018365	45.000000	4424.871521	-4205.741783	24.531319	-174.391200	1790.955287	46.664711	11.856012	-23.627877	
